<?xml version="1.0" encoding="utf-8"?>
<!-- Generator: Adobe Illustrator 23.0.1, SVG Export Plug-In . SVG Version: 6.00 Build 0)  -->
<svg version="1.1" id="Layer_1" xmlns="http://www.w3.org/2000/svg" xmlns:xlink="http://www.w3.org/1999/xlink" x="0px" y="0px"
	 viewBox="0 0 280.8 130.6" style="enable-background:new 0 0 280.8 130.6;" xml:space="preserve">
<style type="text/css">
	.st0{fill:#212121;}
	.st1{fill:#34A536;}
</style>
<g>
	<path class="st0" d="M210.1,15.8c8.9,9.7,13.4,22.9,13.4,39.6v73.6h-49.7V61.7c0-5.4-1.6-9.6-4.8-12.7c-3.2-3.1-7.5-4.6-12.9-4.6
		c-5.6,0-9.9,1.5-13,4.6c-3.1,3.1-4.7,7.3-4.7,12.7v67.2H88.5V61.7c0-5.4-1.6-9.6-4.8-12.7c-3.2-3.1-7.5-4.6-12.9-4.6
		c-5.6,0-9.9,1.5-13,4.6C54.5,52,53,56.3,53,61.7v67.2H3V2.1H53v17.1c3.6-5.4,8.5-9.8,14.7-13c6.2-3.3,13.5-4.9,21.9-4.9
		c9.1,0,17.2,2,24.3,6c7,4,12.7,9.6,16.9,16.8c4.6-6.6,10.6-12,17.8-16.3c7.2-4.3,15.1-6.4,23.8-6.4C188.6,1.2,201.1,6,210.1,15.8z"
		/>
</g>
<circle class="st1" cx="258" cy="107.7" r="20.5"/>
</svg>
